<?xml version="1.0" standalone="no"?>
<!DOCTYPE svg PUBLIC "-//W3C//DTD SVG 20010904//EN"
 "http://www.w3.org/TR/2001/REC-SVG-20010904/DTD/svg10.dtd">
<svg version="1.0" xmlns="http://www.w3.org/2000/svg"
 width="512.000000pt" height="512.000000pt" viewBox="0 0 512.000000 512.000000"
 preserveAspectRatio="xMidYMid meet">

<g transform="translate(0.000000,512.000000) scale(0.100000,-0.100000)"
fill="#000000" stroke="none">
<path d="M324 4784 c3 -10 60 -255 126 -544 67 -289 122 -525 123 -526 1 -1
517 -475 1146 -1053 l1144 -1052 323 322 c272 272 321 325 311 338 -7 9 -477
522 -1046 1141 -568 619 -1036 1128 -1040 1132 -3 4 -244 61 -535 128 -291 67
-535 124 -543 127 -11 5 -14 1 -9 -13z"/>
<path d="M3949 2426 c-20 -7 -49 -22 -65 -34 -16 -11 -288 -281 -605 -599
-563 -564 -577 -579 -589 -629 -34 -150 109 -276 248 -219 51 22 1206 1174
1233 1230 10 22 19 56 19 75 0 78 -62 159 -138 180 -47 13 -58 12 -103 -4z"/>
<path d="M3680 1435 l-225 -225 390 -388 c218 -217 415 -404 446 -424 160
-105 295 -98 412 19 117 117 124 252 19 412 -31 48 -796 831 -812 831 -3 0
-106 -101 -230 -225z"/>
</g>
</svg>
